<?xml version="1.0" encoding="UTF-8"?>
<svg id="Layer_2" data-name="Layer 2" xmlns="http://www.w3.org/2000/svg" viewBox="0 0 448.99 418.66">
  <g id="Layer_1-2" data-name="Layer 1">
    <g>
      <path d="M280.78,361.79c-.96-23.07,17.88-35.68,30.94-51.47,26.65-32.23,53.51-95.01,55.96-136.85.19-3.25.59-13.04-.51-15.46-.45-.99-8-8.26-9.46-9.52-25.19-21.65-88.43-41.46-121.35-43.49-41.33-2.54-104.64,14.52-138.72,38.19-14.07,9.77-16.64,12.23-15.66,30.28,1.09,20.15,9.11,45.74,16.23,64.7,19.03,50.74,57.45,115.62,120.63,107.65-1.16,8.84-5.51,16.94-10.69,23.99-43.46,3.91-77.58-20.62-100.22-55.44-17.99-27.67-26.6-59.98-41.77-89.11C40.51,175.99-1.85,144.96.06,84.58,1.95,25.18,52.32-6.34,108.28,1.31c57.13,7.81,83.59,68.29,148.88,40.65,21.46-9.09,39.35-27.7,60.62-35.28,57.67-20.56,126.02,7.03,130.82,72.9,4.46,61.11-30.32,83.43-57.1,130.69-25.85,45.62-36.95,106.71-81.43,138.35-8.58,6.1-18.73,11.89-29.28,13.17ZM396.66,51.1c-20.15,9.29-41.53,16.46-63.57,19.84-3.99.61-19.34.82-20.9,3.1-1.7,7.92,10.47,14.3,16.9,16.17,9.4,2.74,28.12,3.01,37.39.13,15.21-4.72,29.51-23.35,30.18-39.24ZM54.01,52.1c1.93,16.06,13.87,33.88,29.99,38.43,11.56,3.26,33.46,2.53,43.86-4.04,2.83-1.79,10.16-8.34,8.99-11.81-.79-2.37-18.3-3.21-22.12-3.89-21.12-3.76-40.75-11.3-60.73-18.69Z"/>
      <path d="M226.19,176.33c-4.1,4.17-7.32,10.6-7.79,16.48-2.49,31.24,22.95,48.63,38.21,71.77,23.52,35.65,24.61,84.32-7.28,115.22-19.57,18.97-42.5,34.73-70.2,38.7-4.77.68-12.69-.82-7.94-6.47,1.44-1.71,12.72-6.49,15.98-8.48,43.2-26.41,66.52-58.16,44.12-109.66-13.04-29.98-48.84-56.32-50.4-89.45-1.67-35.47,45.56-67.36,77.6-52.63,15.75,7.25-10.71,11.45-17.03,14.32-4.69,2.13-11.69,6.55-15.27,10.2Z"/>
      <path d="M134.68,228.69c-7.43,7.7-16.63-18.57-18-22.98-2.6-8.37-9.24-36.89-2.02-42.77,8.74-7.11,18.75-4.11,20.15,7.65,1.59,13.37,2.09,38.4,1.15,51.88-.15,2.15.07,4.34-1.29,6.22Z"/>
      <path d="M323.47,159.21c5.99-.59,13.24,4.12,14.19,10.34,1.99,12.9-6.14,47.19-14.46,57.34-3.01,3.67-7.71,4.27-9.46-.46.36-11.98-.48-24.04-.04-36.01.09-2.36.94-4.55,1.08-6.91.44-7.53-2.52-23.2,8.68-24.3Z"/>
    </g>
  </g>
</svg>